<svg width="25" height="24" viewBox="0 0 25 24" fill="none" xmlns="http://www.w3.org/2000/svg">
<g clip-path="url(#clip0_1571_8837)">
<path d="M19.605 17.5696C19.474 15.4011 18.004 13.561 15.9723 12.7923C14.9733 13.4278 13.7715 13.7993 12.4789 13.7993C11.1864 13.7993 9.98459 13.4278 8.98559 12.7923C6.95591 13.5631 5.48593 15.4032 5.35498 17.5696C7.1629 19.4527 9.6868 20.625 12.481 20.625C15.2753 20.625 17.7971 19.4548 19.6071 17.5696H19.605Z" fill="#ED6868"/>
<path d="M12.4812 12.2598C14.8946 12.2598 16.851 10.2709 16.851 7.8174C16.851 5.36393 14.8946 3.375 12.4812 3.375C10.0678 3.375 8.11133 5.36393 8.11133 7.8174C8.11133 10.2709 10.0678 12.2598 12.4812 12.2598Z" fill="#ED6868"/>
</g>
<defs>
<clipPath id="clip0_1571_8837">
<rect width="14.25" height="17.25" fill="white" transform="translate(5.35498 3.375)"/>
</clipPath>
</defs>
</svg>
