<svg width="25" height="24" viewBox="0 0 25 24" fill="none" xmlns="http://www.w3.org/2000/svg">
<path fill-rule="evenodd" clip-rule="evenodd" d="M11.8402 2.54884C8.68985 2.98519 5.9118 4.97254 4.50496 7.79623C3.86233 9.08597 3.56006 10.4325 3.56006 12.0055C3.56006 13.2841 3.66658 13.954 4.05196 15.0972C4.96884 17.817 7.27019 20.1124 9.98719 21.0171C11.1216 21.3948 11.791 21.5 13.0601 21.5C14.3291 21.5 14.9985 21.3948 16.1329 21.0171C18.8499 20.1124 21.1513 17.817 22.0682 15.0972C22.4535 13.954 22.5601 13.2841 22.5601 12.0055C22.5601 11.1837 22.5217 10.6681 22.4271 10.2175C22.006 8.21201 21.0956 6.54858 19.6622 5.16549C18.3086 3.85944 16.7469 3.0386 14.8864 2.6553C14.169 2.50749 12.5477 2.4508 11.8402 2.54884ZM17.689 7.39378C17.7887 7.49346 17.8333 7.61303 17.8121 7.72396C17.7938 7.81962 17.085 9.18773 16.2369 10.7643L14.695 13.6307L11.7461 15.214C9.13882 16.6139 8.77446 16.7893 8.60055 16.7281C8.49224 16.6901 8.37297 16.5715 8.33525 16.4643C8.27495 16.2928 8.45676 15.9165 9.85301 13.3229L11.4392 10.3763L14.3555 8.80845C15.9594 7.94612 17.3304 7.23994 17.4022 7.23904C17.4739 7.23822 17.603 7.30781 17.689 7.39378ZM12.6181 11.089C11.6779 11.5829 11.938 12.9158 12.9957 13.0235C13.7924 13.1046 14.3736 12.1882 13.9578 11.5066C13.6644 11.0256 13.0834 10.8445 12.6181 11.089Z" fill="#ED6868"/>
</svg>
