<svg width="24" height="24" viewBox="0 0 24 24" fill="none" xmlns="http://www.w3.org/2000/svg">
<path fill-rule="evenodd" clip-rule="evenodd" d="M10.8802 2.54884C7.72989 2.98519 4.95184 4.97254 3.545 7.79623C2.90237 9.08597 2.6001 10.4325 2.6001 12.0055C2.6001 13.2841 2.70662 13.954 3.092 15.0972C4.00888 17.817 6.31023 20.1124 9.02723 21.0171C10.1616 21.3948 10.831 21.5 12.1001 21.5C13.3692 21.5 14.0386 21.3948 15.173 21.0171C17.89 20.1124 20.1913 17.817 21.1082 15.0972C21.4936 13.954 21.6001 13.2841 21.6001 12.0055C21.6001 11.1837 21.5618 10.6681 21.4672 10.2175C21.046 8.21201 20.1356 6.54858 18.7023 5.16549C17.3486 3.85944 15.7869 3.0386 13.9264 2.6553C13.209 2.50749 11.5877 2.4508 10.8802 2.54884ZM16.729 7.39378C16.8288 7.49346 16.8734 7.61303 16.8521 7.72396C16.8338 7.81962 16.125 9.18773 15.277 10.7643L13.735 13.6307L10.7861 15.214C8.17886 16.6139 7.8145 16.7893 7.64059 16.7281C7.53228 16.6902 7.41301 16.5715 7.37529 16.4643C7.31499 16.2928 7.4968 15.9165 8.89305 13.3229L10.4792 10.3763L13.3955 8.80845C14.9994 7.94612 16.3704 7.23994 16.4422 7.23904C16.514 7.23822 16.643 7.30781 16.729 7.39378ZM11.6581 11.089C10.7179 11.5829 10.978 12.9158 12.0357 13.0235C12.8324 13.1046 13.4137 12.1882 12.9979 11.5066C12.7044 11.0256 12.1234 10.8445 11.6581 11.089Z" fill="#808080"/>
</svg>
