<svg width="25" height="24" viewBox="0 0 25 24" fill="none" xmlns="http://www.w3.org/2000/svg">
<path fill-rule="evenodd" clip-rule="evenodd" d="M9.62461 5.1734C9.09039 5.43335 8.82846 5.71353 8.21697 6.67884L7.66115 7.55635L6.46351 7.58709C5.41429 7.61401 5.22146 7.63827 4.9071 7.78321C4.46205 7.98831 4.02164 8.44931 3.80904 8.93274L3.64732 9.30042L3.62754 13.6677C3.60537 18.5699 3.6008 18.5161 4.10046 19.1767C4.28991 19.4271 4.5156 19.6148 4.81526 19.7713L5.2532 20H12.6201H19.987L20.425 19.7713C20.7246 19.6148 20.9503 19.4271 21.1398 19.1767C21.6394 18.5161 21.6349 18.5699 21.6127 13.6677L21.5929 9.30042L21.4305 8.92546C21.227 8.45571 20.7838 7.99676 20.3262 7.78167C20.0167 7.63629 19.8297 7.61268 18.7767 7.58636L17.5791 7.55635L17.0233 6.67884C16.4118 5.71353 16.1498 5.43335 15.6156 5.1734C15.2611 5.00088 15.2453 5 12.6201 5C9.99492 5 9.97916 5.00088 9.62461 5.1734ZM13.7064 8.19767C14.5454 8.38342 15.3119 8.83626 16.004 9.5553C16.6728 10.25 16.9482 10.7022 17.2369 11.5801C17.4058 12.0936 17.431 12.2851 17.4356 13.0876C17.4416 14.141 17.3018 14.7496 16.8615 15.5878C16.4724 16.3287 15.5469 17.2451 14.7972 17.6319C12.984 18.5676 10.8294 18.2589 9.37907 16.8559C8.23843 15.7523 7.68092 14.317 7.78684 12.7566C7.93167 10.6227 9.39476 8.77588 11.3686 8.23554C11.9978 8.06324 13.0241 8.04662 13.7064 8.19767ZM19.4059 9.5139C19.5734 9.58707 19.6655 9.6909 19.7222 9.8704C19.812 10.1547 19.7732 10.3267 19.5645 10.5689C19.4359 10.7181 19.3572 10.7344 18.7624 10.7344C18.1561 10.7344 18.089 10.7198 17.9303 10.5539C17.6319 10.2422 17.7454 9.64773 18.1345 9.48367C18.3742 9.38256 19.1472 9.40102 19.4059 9.5139ZM12.0571 10.3954C11.2468 10.5837 10.5187 11.1902 10.1702 11.9672C10.0044 12.337 9.98106 12.4797 9.98106 13.1254C9.98106 13.8077 9.99788 13.8978 10.2098 14.3478C11.0204 16.0699 13.2177 16.441 14.5236 15.0766C14.72 14.8713 14.9659 14.5134 15.07 14.2815C15.2358 13.9118 15.2592 13.7688 15.2592 13.1243C15.2592 12.4817 15.2355 12.3363 15.072 11.9716C14.7 11.1426 13.9486 10.5389 13.0822 10.3731C12.588 10.2785 12.5575 10.2792 12.0571 10.3954Z" fill="#ED6868"/>
</svg>
